<svg width="20" height="20" viewBox="0 0 20 20" fill="none" xmlns="http://www.w3.org/2000/svg">
<g clip-path="url(#clip0_330_2933)">
<path d="M10.0152 20C15.5465 20 20.0304 15.5228 20.0304 10C20.0304 4.47715 15.5465 0 10.0152 0C4.48397 0 0 4.47715 0 10C0 15.5228 4.48397 20 10.0152 20Z" fill="#E0E0E0"/>
<path d="M10.0154 19.696C15.4626 19.696 19.8784 15.2869 19.8784 9.84802C19.8784 4.40911 15.4626 0 10.0154 0C4.56817 0 0.152344 4.40911 0.152344 9.84802C0.152344 15.2869 4.56817 19.696 10.0154 19.696Z" fill="white"/>
<mask id="mask0_330_2933" style="mask-type:luminance" maskUnits="userSpaceOnUse" x="3" y="3" width="14" height="14">
<path d="M16.4078 8.69305H10.1673V11.2766H13.7594C13.4245 12.918 12.0242 13.8602 10.1673 13.8602C7.97554 13.8602 6.20994 12.0973 6.20994 9.90885C6.20994 7.7204 7.97554 5.95749 10.1673 5.95749C11.111 5.95749 11.9634 6.29184 12.6331 6.83895L14.5813 4.89366C13.3941 3.86022 11.872 3.22192 10.1673 3.22192C6.45347 3.22192 3.47021 6.20065 3.47021 9.90885C3.47021 13.6171 6.45347 16.5958 10.1673 16.5958C13.5159 16.5958 16.56 14.1642 16.56 9.90885C16.56 9.51372 16.4991 9.08819 16.4078 8.69305Z" fill="white"/>
</mask>
<g mask="url(#mask0_330_2933)">
<path d="M2.86133 13.8603V5.95752L8.03637 9.90889L2.86133 13.8603Z" fill="#FBBC05"/>
</g>
<mask id="mask1_330_2933" style="mask-type:luminance" maskUnits="userSpaceOnUse" x="3" y="3" width="14" height="14">
<path d="M16.4078 8.69305H10.1673V11.2766H13.7594C13.4245 12.918 12.0242 13.8602 10.1673 13.8602C7.97554 13.8602 6.20994 12.0973 6.20994 9.90885C6.20994 7.7204 7.97554 5.95749 10.1673 5.95749C11.111 5.95749 11.9634 6.29184 12.6331 6.83895L14.5813 4.89366C13.3941 3.86022 11.872 3.22192 10.1673 3.22192C6.45347 3.22192 3.47021 6.20065 3.47021 9.90885C3.47021 13.6171 6.45347 16.5958 10.1673 16.5958C13.5159 16.5958 16.56 14.1642 16.56 9.90885C16.56 9.51372 16.4991 9.08819 16.4078 8.69305Z" fill="white"/>
</mask>
<g mask="url(#mask1_330_2933)">
<path d="M2.86133 5.95748L8.03637 9.90885L10.1673 8.05475L17.4732 6.86933V2.61401H2.86133V5.95748Z" fill="#EA4335"/>
</g>
<mask id="mask2_330_2933" style="mask-type:luminance" maskUnits="userSpaceOnUse" x="3" y="3" width="14" height="14">
<path d="M16.4078 8.69305H10.1673V11.2766H13.7594C13.4245 12.918 12.0242 13.8602 10.1673 13.8602C7.97554 13.8602 6.20994 12.0973 6.20994 9.90885C6.20994 7.7204 7.97554 5.95749 10.1673 5.95749C11.111 5.95749 11.9634 6.29184 12.6331 6.83895L14.5813 4.89366C13.3941 3.86022 11.872 3.22192 10.1673 3.22192C6.45347 3.22192 3.47021 6.20065 3.47021 9.90885C3.47021 13.6171 6.45347 16.5958 10.1673 16.5958C13.5159 16.5958 16.56 14.1642 16.56 9.90885C16.56 9.51372 16.4991 9.08819 16.4078 8.69305Z" fill="white"/>
</mask>
<g mask="url(#mask2_330_2933)">
<path d="M2.86133 13.8602L11.9937 6.86933L14.3986 7.17328L17.4732 2.61401V17.2037H2.86133V13.8602Z" fill="#34A853"/>
</g>
<mask id="mask3_330_2933" style="mask-type:luminance" maskUnits="userSpaceOnUse" x="3" y="3" width="14" height="14">
<path d="M16.4078 8.69305H10.1673V11.2766H13.7594C13.4245 12.918 12.0242 13.8602 10.1673 13.8602C7.97554 13.8602 6.20994 12.0973 6.20994 9.90885C6.20994 7.7204 7.97554 5.95749 10.1673 5.95749C11.111 5.95749 11.9634 6.29184 12.6331 6.83895L14.5813 4.89366C13.3941 3.86022 11.872 3.22192 10.1673 3.22192C6.45347 3.22192 3.47021 6.20065 3.47021 9.90885C3.47021 13.6171 6.45347 16.5958 10.1673 16.5958C13.5159 16.5958 16.56 14.1642 16.56 9.90885C16.56 9.51372 16.4991 9.08819 16.4078 8.69305Z" fill="white"/>
</mask>
<g mask="url(#mask3_330_2933)">
<path d="M17.4733 17.2037L8.0365 9.90889L6.81885 8.99703L17.4733 5.95752V17.2037Z" fill="#4285F4"/>
</g>
</g>
<defs>
<clipPath id="clip0_330_2933">
<rect width="20" height="20" fill="white"/>
</clipPath>
</defs>
</svg>
